<?xml version="1.0" ?><!DOCTYPE svg  PUBLIC '-//W3C//DTD SVG 1.1//EN'  'http://www.w3.org/Graphics/SVG/1.1/DTD/svg11.dtd'><svg enable-background="new 0 0 24 24" height="24px" id="Layer_1" version="1.1" viewBox="0 0 24 24" width="24px" xml:space="preserve" xmlns="http://www.w3.org/2000/svg" xmlns:xlink="http://www.w3.org/1999/xlink"><g><path d="M15.1,23.5c-0.1,0-0.2,0-0.3-0.1c-0.1-0.1-0.2-0.2-0.2-0.4v-7.2c0-0.2,0.1-0.4,0.3-0.4l1.6-0.6v-3.7l-2.7,1L13.2,16   c0.1,0.1,0.1,0.2,0.1,0.3c0,0.1-0.1,0.2-0.1,0.3l-0.8,0.8c-0.1,0.1-0.2,0.1-0.3,0.1l0,0c-0.1,0-0.2-0.1-0.3-0.1l-0.8-0.8   c-0.1-0.1-0.1-0.2-0.1-0.3c0-0.1,0-0.2,0.1-0.3l-0.7-3.9l-2.7-1v3.7L9,15.4c0.2,0.1,0.3,0.2,0.3,0.4V23c0,0.2-0.1,0.3-0.2,0.4   c-0.1,0.1-0.3,0.1-0.5,0c-3-1.3-5-4.3-5-7.6V8.8c0-4.6,3.7-8.3,8.3-8.3c4.6,0,8.3,3.7,8.3,8.3v7.1c0,3.3-2,6.3-5,7.6   C15.3,23.5,15.2,23.5,15.1,23.5z"/></g></svg>