<svg xmlns="http://www.w3.org/2000/svg" viewBox="0 0 223.93 247.98"><title>Layer 3</title><g id="Layer_2" data-name="Layer 2"><g id="Layer_3" data-name="Layer 3"><path d="M111.2,247.89c-.42-1.74-1.29-3.51-1.19-5.22.32-5.17-1.13-9.93-3.1-14.51a55.53,55.53,0,0,0-5.59-9.95,105.49,105.49,0,0,0-7.23-8.44c-5.69-1.14-10.29.92-15,2.5a40.23,40.23,0,0,0-13.26,7.78c-3.72,3.14-7.06,6.74-10.58,10.14-1.72-.86-1.36-2.22-1-3.48,1.43-4.42,3.08-8.78,4.35-13.25,2.36-8.33,4-16.79,3.19-25.79-6.47-.92-13-.19-19.53,1.09-7.81,1.52-15.63,3-23.37,4.87-4.83,1.15-9.51,2.93-14.27,4.38-1.37.41-2.78.67-4.67,1.12.44-2.43,1.9-3.15,3.29-4a174.6,174.6,0,0,0,37.55-30.25c4.09-4.38,8.34-11,9.58-15.23C47.78,142.71,42,138.12,37,132.81s-12.15-7.2-18-11.07l.23-1.17c.94-.12,2-.54,2.78-.29a53.76,53.76,0,0,0,17.75,2c8.17-.27,15.61-2.8,23-7,.38-4.94,1.36-9.92,1-14.79a72.65,72.65,0,0,0-3.33-15c-1.4-4.65-4.88-8.45-6.57-13l.83-.57a76.46,76.46,0,0,1,7.14,5.86C67.3,83.5,74.18,87.14,81.3,90.42a19.43,19.43,0,0,0,4.48,1c4.06-2.75,5.45-6.82,7-10.55A228.79,228.79,0,0,0,107,31.12c1.42-8,3.23-15.93,3-24.16-.06-2,.8-4.13,1.4-7a8.38,8.38,0,0,1,2.48,6c.15,15.59,3.89,30.58,7.64,45.56A166,166,0,0,0,132.81,84c1.15,2.38,2.68,4.57,3.89,6.62,4.39,1.89,7.45-.87,10.61-2.32,7.79-3.58,14.25-9.09,20.26-15.13a19.75,19.75,0,0,1,1.73-1.4c1.08,2-.16,3.43-.94,4.63a48,48,0,0,0-7.46,30.45c.17,2.14,0,4.32,0,6.06,1.41,3,3.64,4.32,6.19,5.36a53.24,53.24,0,0,0,25.38,4,82,82,0,0,0,8.27-1.71c1.18-.24,2.39-.32,4.14-.54-.84,3-2.74,3.63-4.49,4.34-10.75,4.36-18.3,12.47-25.08,21.44a6.5,6.5,0,0,0-.14,8c5.42,8.21,11.48,15.87,19.33,22,5.5,4.28,10.82,8.79,16.36,13,3,2.31,6.39,4.19,9.53,6.35a41.76,41.76,0,0,1,3.51,3l-.6,1.05c-6.56-1.93-13.07-4.08-19.7-5.72s-13.32-2.69-20-4.13c-6.84-1.47-13.7-2.52-21-1.58-1.26,3.71-.91,7.5-.3,11.22a158.68,158.68,0,0,0,7.71,28.81,6,6,0,0,1,.16,1.69c-1.84,1.4-2.78.13-3.5-.89-7.34-10.35-17.86-15.61-29.77-18.58a42.85,42.85,0,0,0-6.3-.65c-10,9.12-15.84,19.9-16.75,33.2a40.67,40.67,0,0,1-1.13,5.5Zm62.51-73.6-8.78-10.57a76.53,76.53,0,0,0,.12-24.85c.29-3.84,3.95-4.74,6.33-7.31l-8.49-.42a65.59,65.59,0,0,0-16.29-21.61c.68-3,1.28-5.66,2-8.71l-7,4.18-18-7.68c-2-5.65-4.13-11.57-6-17.57S114,67.43,112,60.65c-1.85,6.63-3.39,12.82-5.32,18.89s-4.31,12.2-6.35,17.93L82.4,105l-6.1-3.3c.24,3.09.45,5.66.65,8.23l-1-.34-16,21.5-5.35.47,4.69,5.14-.85.57v27.9l-8.73,9.11,11-1.89L76.93,193c-.14,1.79-.34,4.29-.57,7.12l6.73-3.1c7.87,3.78,15.64,7.15,24.73,7.52l4.31,7.21,4-7.27c9.19-.28,17.12-3.69,24.69-7.38l7.11,2.76c-.43-2.92-.77-5.15-1-6.86,3.13-3.57,6.05-6.53,8.52-9.82s4.7-7.15,7.14-10.95Z"/><path d="M111.7,200.38c-27.38-.13-49.62-21.77-49.56-49.44,0-27.43,21.61-49.58,50.12-49.46,27,.13,49.3,21,49.58,49.53C162.1,177.9,139.28,200.79,111.7,200.38Z"/></g></g></svg>