<?xml version="1.0" ?><!DOCTYPE svg  PUBLIC '-//W3C//DTD SVG 1.1//EN'  'http://www.w3.org/Graphics/SVG/1.1/DTD/svg11.dtd'><svg enable-background="new 0 0 256 256" height="256px" id="Layer_1" version="1.1" viewBox="0 0 256 256" width="256px" xml:space="preserve" xmlns="http://www.w3.org/2000/svg" xmlns:xlink="http://www.w3.org/1999/xlink"><g><g><path clip-rule="evenodd" d="M171.941,184.335l11.77,56.929l-18.923-4.738l-14.02,13.565     l-10.846-53.477c1.484,0.412,3.051,0.65,4.745,0.662c1.151,0.008,2.303-0.1,3.432-0.325c7.04-1.4,10.883-6.314,14.522-11.98     c0.348-0.542,0.88-1.429,1.393-2.138c0.852,0.137,1.839,0.384,2.457,0.52C168.329,183.758,170.143,184.122,171.941,184.335     L171.941,184.335z M116.077,196.616l-10.845,53.476l-14.02-13.565l-18.923,4.738l11.774-56.942     c1.786-0.206,3.598-0.555,5.441-0.956c0.629-0.137,1.633-0.388,2.497-0.526c0.505,0.698,1.029,1.57,1.371,2.105     c2.975,4.638,5.93,8.756,11.235,10.995c1.061,0.448,2.165,0.788,3.295,1.013C110.87,197.542,113.552,197.338,116.077,196.616     L116.077,196.616z" fill="#323232" fill-rule="evenodd"/><path clip-rule="evenodd" d="M128,13.464c5.998,0.429,11.92-8.634,17.881-7.448     c5.96,1.186,7.93,11.81,13.669,13.725c5.378,2.69,14.317-3.415,19.37-0.04c5.053,3.377,2.807,13.947,7.376,17.911     c3.939,4.544,14.535,2.324,17.911,7.377c3.376,5.053-2.744,13.959-0.039,19.37c1.9,5.706,12.538,7.709,13.724,13.669     c1.185,5.961-7.877,11.847-7.449,17.881c-0.428,5.999,8.634,11.921,7.449,17.881c-1.186,5.961-11.811,7.931-13.724,13.669     c-2.691,5.378,3.415,14.318,0.039,19.371c-3.376,5.053-13.947,2.807-17.911,7.377c-4.544,3.939-2.324,14.534-7.376,17.91     c-5.053,3.376-13.96-2.744-19.37-0.039c-5.706,1.9-7.709,12.539-13.669,13.724c-5.96,1.186-11.847-7.877-17.881-7.448     c-5.998-0.428-11.92,8.634-17.881,7.448c-5.96-1.185-7.93-11.81-13.669-13.724c-5.378-2.691-14.317,3.415-19.37,0.039     c-5.053-3.376-2.807-13.946-7.377-17.91c-3.939-4.545-14.535-2.324-17.911-7.377c-3.376-5.053,2.744-13.96,0.039-19.371     c-1.9-5.705-12.538-7.708-13.724-13.669c-1.186-5.96,7.877-11.846,7.448-17.881c0.428-5.998-8.634-11.92-7.448-17.881     c1.186-5.96,11.81-7.931,13.724-13.669c2.691-5.378-3.415-14.317-0.04-19.37c3.376-5.053,13.947-2.807,17.911-7.377     c4.544-3.938,2.324-14.534,7.377-17.911c5.053-3.376,13.959,2.744,19.37,0.039c5.706-1.899,7.709-12.538,13.669-13.724     C116.079,4.83,121.966,13.893,128,13.464L128,13.464z M152.344,37.138c-41.658-17.257-87.638,13.271-87.972,58.324     c-0.336,45.352,45.871,76.654,87.971,59.217c42.099-17.438,52.64-72.246,20.332-104.078     C166.789,44.802,159.863,40.252,152.344,37.138L152.344,37.138z" fill="#323232" fill-rule="evenodd"/><path clip-rule="evenodd" d="M128,43.733c28.816,0,52.176,23.36,52.176,52.176     c0,28.816-23.36,52.177-52.176,52.177s-52.176-23.36-52.176-52.177C75.823,67.093,99.184,43.733,128,43.733L128,43.733z      M131.468,59.378l8.906,19.345l21.15,2.493c1.515,0.178,2.713,1.161,3.184,2.611c0.471,1.45,0.08,2.949-1.04,3.984     l-15.647,14.448l4.166,20.885c0.298,1.495-0.266,2.938-1.5,3.835c-1.234,0.896-2.78,0.988-4.111,0.242L128,116.806     l-18.576,10.416c-1.331,0.746-2.877,0.654-4.111-0.242c-1.234-0.897-1.798-2.34-1.5-3.835l4.166-20.885L92.332,87.812     c-1.121-1.035-1.512-2.534-1.041-3.984c0.471-1.45,1.669-2.434,3.184-2.611l21.15-2.493l8.906-19.345     c0.638-1.385,1.943-2.222,3.468-2.222C129.525,57.157,130.83,57.993,131.468,59.378L131.468,59.378z" fill="#323232" fill-rule="evenodd"/></g></g></svg>