<?xml version="1.0" ?><!DOCTYPE svg  PUBLIC '-//W3C//DTD SVG 1.1//EN'  'http://www.w3.org/Graphics/SVG/1.1/DTD/svg11.dtd'><svg enable-background="new 0 0 512 512" height="512px" id="Layer_1" version="1.1" viewBox="0 0 512 512" width="512px" xml:space="preserve" xmlns="http://www.w3.org/2000/svg" xmlns:xlink="http://www.w3.org/1999/xlink"><g><g><path d="M157.539,101.422c2.586,4.484,8.305,6.016,12.781,3.438l11.516-6.656c2.148-1.234,3.719-3.281,4.359-5.672    c0.641-2.406,0.305-4.953-0.938-7.109L162.624,46.22c-2.586-4.484-8.305-6.016-12.781-3.438l-11.516,6.656    c-2.148,1.234-3.719,3.281-4.359,5.672c-0.641,2.406-0.305,4.953,0.938,7.109L157.539,101.422z" fill="#4D4D4D"/><path d="M117.438,141.547l-39.227-22.656c-2.148-1.234-4.703-1.578-7.102-0.922    c-2.391,0.641-4.438,2.203-5.68,4.359l-6.641,11.516c-2.586,4.469-1.055,10.188,3.422,12.766l39.227,22.656    c2.148,1.234,4.703,1.578,7.102,0.922c2.391-0.641,4.438-2.203,5.68-4.359l6.641-11.516    C123.445,149.844,121.914,144.125,117.438,141.547z" fill="#4D4D4D"/><path d="M96,246.641V233.36c0-5.172-4.188-9.359-9.352-9.359H41.352c-5.164,0-9.352,4.188-9.352,9.359v13.281    c0,5.172,4.188,9.359,9.352,9.359h45.297C91.813,256,96,251.813,96,246.641z" fill="#4D4D4D"/><path d="M249.352,80h13.305c5.155,0,9.344-4.188,9.344-9.359V25.359c0-5.172-4.188-9.359-9.344-9.359h-13.305    c-5.164,0-9.352,4.188-9.352,9.359V70.64C240,75.813,244.188,80,249.352,80z" fill="#4D4D4D"/><path d="M114.219,314.172c-1.242-2.156-3.289-3.719-5.68-4.359c-2.398-0.655-4.953-0.313-7.102,0.923    L62.21,333.391c-4.477,2.578-6.008,8.297-3.422,12.767l6.641,11.516c1.242,2.156,3.289,3.719,5.68,4.359    c2.398,0.655,4.953,0.313,7.102-0.922l39.227-22.656c4.477-2.578,6.008-8.297,3.422-12.767L114.219,314.172z" fill="#4D4D4D"/><path d="M414.375,81.609c-16.159-16.173-34.249-29.165-53.454-39.318c-3.965-2.095-8.879-0.689-11.129,3.19    l-23.267,40.121c-1.147,1.979-1.433,4.342-0.791,6.538c0.643,2.196,2.154,4.038,4.188,5.085    c14.511,7.476,27.96,17.143,39.827,29.01c62.719,62.734,62.719,164.797,0,227.531C339.406,384.094,299.016,400,255.992,400h-0.008    h-32v-26.484c0-2.094-1.344-4.016-3.469-4.953c-2.117-0.922-4.648-0.702-6.523,0.578l-82.438,56.392    c-2.258,1.563-3.57,3.938-3.57,6.469s1.313,4.906,3.57,6.469l82.438,56.392c1.875,1.28,4.406,1.5,6.523,0.578    c2.125-0.938,3.469-2.859,3.469-4.953V464h32c57.329,0,114.657-21.859,158.391-65.609    C501.859,310.906,501.859,169.094,414.375,81.609z" fill="#4D4D4D"/><path d="M346.656,160H336h-13.141c-1.797,0-3.453,0.891-4.453,2.375l-61.5,92.281    c-0.594,0.875-0.906,1.906-0.906,2.953v25.047c0,2.953,2.391,5.344,5.344,5.344H320v26.656c0,2.953,2.391,5.344,5.344,5.344    h21.313c2.952,0,5.344-2.391,5.344-5.344V288h10.656c2.952,0,5.344-2.391,5.344-5.344v-21.313c0-2.952-2.392-5.344-5.344-5.344    H352v-90.656C352,162.391,349.609,160,346.656,160z M320,256h-33.594L320,206.406V256z" fill="#4D4D4D"/><path d="M144.023,202.297c-0.148,1.453,0.32,2.906,1.305,4c0.984,1.078,2.398,1.703,3.875,1.703h20.648    c2.477,0,4.609-1.734,5.086-4.141c2.156-10.672,12.633-12.328,17.43-12.516c5.469-0.266,10.617,1.453,13.625,4.313    c2.156,2.063,3.18,4.688,3.18,8.219c0,8.406-0.164,37.516-60.836,81.063c-2.719,1.953-4.336,5.095-4.336,8.438v20.984    c0,3.125,2.523,5.641,5.641,5.641h84.719c3.109,0,5.641-2.516,5.641-5.641v-20.734c0-3.125-2.531-5.625-5.641-5.625h-42    c40.624-38.063,47.64-68.11,47.64-84.126c0-11.938-4.375-23.078-12.641-30.984c-9.109-8.703-22.477-13.422-36.203-12.844    C165.242,161.063,146.594,178.453,144.023,202.297z" fill="#4D4D4D"/></g></g></svg>