<svg xmlns="http://www.w3.org/2000/svg" viewBox="0 0 314.3 324.76"><title>Layer 3</title><g id="Layer_2" data-name="Layer 2"><g id="Layer_3" data-name="Layer 3"><path d="M65.39,103.5,237.51,275.62a290.88,290.88,0,0,1-52.85,49.14A289.63,289.63,0,0,1,65.39,103.5Z"/><path d="M305.22,92.08a288.66,288.66,0,0,1-30.36,126.65q-3,6-6.23,11.77L113.49,75.36q6.18-2.76,12.19-5.81a290.31,290.31,0,0,0,59.47-40A289,289,0,0,0,305.22,92.08Z"/><path d="M314.3,314.29l-26.8-4.36L63,85.46,28.94,113.72,17.22,102,48.4,70.83,20.73,33.28A16.86,16.86,0,1,1,33.29,20.73L70.83,48.4,102,17.22l11.72,11.71L85.47,63,309.94,287.5Z"/></g></g></svg>